<svg width="494" height="438" viewBox="0 0 494 438" fill="none" xmlns="http://www.w3.org/2000/svg">
<path d="M412 140.454V295H302V142.261H192C192 81.2561 241.14 32 302 32C361.959 32 411.098 80.3521 412 140.454Z" fill="#FF5F00"/>
<path d="M302 294.739C302 355.744 252.861 405 192 405C132.041 405 82.9018 356.648 82 296.546V142H192V294.739H302Z" fill="#FF5F00"/>
<path d="M143.505 0H348V146H145.897V292C65.1753 292 0 226.778 0 146C0 66.4181 63.9796 1.19651 143.505 0Z" fill="#E8E9EA"/>
<path d="M348.103 146C428.825 146 494 211.221 494 292C494 371.582 430.02 436.803 350.495 438H146V292H348.103V146Z" fill="#E8E9EA"/>
</svg>
