<svg width="16" height="14" viewBox="0 0 16 14" fill="none" xmlns="http://www.w3.org/2000/svg">
<path d="M3.48269 14H0.376851V4.48747H3.48269V14ZM1.8823 3.3208C0.753701 3.3208 0 2.60213 0 1.7052C0 0.717733 0.753701 0 1.8823 0C3.01187 0 3.76459 0.718667 3.76459 1.61467C3.76459 2.60213 3.01089 3.3208 1.8823 3.3208ZM16 14H12.4233V9.06453C12.4233 7.80733 11.8586 6.9104 10.635 6.9104C9.69436 6.9104 9.22354 7.53853 8.94164 8.07707V14H5.45895V4.48747H8.94164V6.01253C9.12957 5.3844 10.2591 4.39787 12.0475 4.39787C14.3056 4.39787 16 5.74373 16 8.7052V14Z" fill="black"/>
</svg>
